<svg xmlns="http://www.w3.org/2000/svg" viewBox="0 0 660.02 537.85"><defs><style>.cls-1{fill:none}.cls-2{fill:#fff}.cls-4{fill:#7f7f7f}.cls-6{fill:#39b54a}.cls-7{fill:#e6e6e6}.cls-12{fill:#1a1a1a}</style><clipPath id="clip-path"><path class="cls-1" d="M25.5 235.35h238v254.67h-238z"/></clipPath></defs><g id="Layer_1" data-name="Layer 1"><rect class="cls-2" x=".5" y=".5" width="659.02" height="536.85" rx="12" ry="12"/><path d="M647.52 537.85H12.5A12.51 12.51 0 0 1 0 525.35V12.5A12.51 12.51 0 0 1 12.5 0h635A12.51 12.51 0 0 1 660 12.5v512.85a12.51 12.51 0 0 1-12.48 12.5zM12.5 1A11.51 11.51 0 0 0 1 12.5v512.85a11.51 11.51 0 0 0 11.5 11.5h635a11.51 11.51 0 0 0 11.5-11.5V12.5A11.51 11.51 0 0 0 647.52 1z" fill="#bfbfbf"/><path d="M659 141.45l-658-.1V12.29A11.44 11.44 0 0 1 13.31 1h634.61A11.59 11.59 0 0 1 659 12.21z"/><path class="cls-4" d="M206.7 83.11a85.29 85.29 0 0 1 12.08-.78c6 0 10.12.83 13 2.94a9.24 9.24 0 0 1 3.69 7.83c0 4.77-3.63 8-7.08 9.21v.17c2.8 1.05 4.34 3.55 5.36 7 1.25 4.22 2.5 9.1 3.27 10.55h-9.28c-.65-1.05-1.61-4.11-2.8-8.72s-2.8-5.94-6.49-6h-2.74V120h-9zm9 16.1h3.57c4.52 0 7.2-2.11 7.2-5.38 0-3.44-2.5-5.16-6.67-5.22a24.27 24.27 0 0 0-4.11.28zM265.85 104.21H251.1v8.88h16.48V120H242V82.62h24.76v6.94H251.1v7.77h14.76zM307.27 118.31a47.81 47.81 0 0 1-13.39 2.11c-7.32 0-12.62-1.72-16.31-5.05a17.47 17.47 0 0 1-5.65-13.6c.06-12.43 9.76-19.54 22.91-19.54A29.39 29.39 0 0 1 306 84.06l-1.9 6.77a23.62 23.62 0 0 0-9.34-1.61c-7.56 0-13.27 4-13.27 12.1 0 7.72 5.18 12.27 12.62 12.27a12.94 12.94 0 0 0 4.46-.56v-7.83h-6.19v-6.6h14.94zM323.46 82.62V120h-9.1V82.62zM331.61 111.31a24.48 24.48 0 0 0 10.06 2.33c4.17 0 6.37-1.61 6.37-4.05s-1.9-3.66-6.72-5.27c-6.67-2.16-11-5.61-11-11C330.3 86.89 336 82 345.48 82a26.1 26.1 0 0 1 10.24 1.89l-2 6.83a20.19 20.19 0 0 0-8.39-1.78c-3.93 0-5.83 1.67-5.83 3.61 0 2.39 2.26 3.44 7.44 5.27 7.08 2.44 10.41 5.88 10.41 11.16 0 6.27-5.18 11.6-16.19 11.6a27.83 27.83 0 0 1-11.37-2.28zM371.18 89.72h-10.77v-7.1h30.83v7.11h-11V120h-9.1zM419.92 104.21h-14.76v8.88h16.48V120h-25.58V82.62h24.76v6.94h-15.66v7.77h14.76zM427.83 83.11a85.29 85.29 0 0 1 12.08-.78c6 0 10.12.83 13 2.94a9.24 9.24 0 0 1 3.69 7.83c0 4.77-3.63 8-7.08 9.21v.17c2.8 1.05 4.34 3.55 5.36 7 1.25 4.22 2.5 9.1 3.27 10.55h-9.28c-.65-1.05-1.61-4.11-2.8-8.72s-2.8-5.94-6.49-6h-2.74V120h-9zm9 16.1h3.57c4.52 0 7.2-2.11 7.2-5.38 0-3.44-2.5-5.16-6.67-5.22a24.27 24.27 0 0 0-4.11.28z"/><circle cx="321.42" cy="47.27" r="15.62" fill="#6b6b6b"/><path class="cls-2" d="M39.83 336.01h94v110.67h-94z"/><path class="cls-6" d="M138.83 451.68h-104V331h104zm-94-10h84V341h-84z"/><path class="cls-7" d="M299.83 284.01h328v19.33h-328zM299.83 320.01h328v19.33h-328zM299.83 356.01h328v19.33h-328zM299.83 392.01h328v19.33h-328zM299.83 246.01h328v19.33h-328z"/><path fill="#ffef22" d="M348.5 21.89l-28.3 35.8-14.7-11.6v-8.07l14.48 10.6 23.54-30.47 4.98 3.74z"/><path fill="#79d841" d="M299.83 435.23h328v54.79h-328z"/></g><g clip-path="url(#clip-path)" id="Layer_2" data-name="Layer 2"><path class="cls-6" d="M21.47 282h259.34v208.02H21.47z"/><path fill="#006837" d="M32.39 286.44h224.77v178.91H32.39z"/><path class="cls-6" d="M262.17 470.35H27.39V281.44h234.78zm-224.77-10h214.77V291.44H37.39z"/><path class="cls-12" d="M25 235.08h245.5v52H25z"/><path class="cls-12" transform="rotate(45 142.697 287.347)" d="M123.77 269.7h37.87V305h-37.87z"/><path class="cls-12" transform="rotate(45 114.696 287.349)" d="M95.77 269.7h37.87V305H95.77z"/><path class="cls-12" transform="rotate(45 88.705 287.353)" d="M69.77 269.7h37.87V305H69.77z"/><path class="cls-12" transform="rotate(45 60.699 287.342)" d="M41.77 269.7h37.87V305H41.77z"/><path class="cls-12" transform="rotate(45 35.697 287.346)" d="M16.77 269.7h37.87V305H16.77z"/><path class="cls-12" transform="rotate(45 171.037 287.346)" d="M152.1 269.7h37.87V305H152.1z"/><path class="cls-12" transform="rotate(45 196.706 287.348)" d="M177.77 269.7h37.87V305h-37.87z"/><path class="cls-12" transform="rotate(45 226.629 287.343)" d="M207.7 269.7h37.87V305H207.7z"/><path class="cls-12" transform="rotate(45 250.628 287.344)" d="M231.7 269.7h37.87V305H231.7z"/><path class="cls-2" d="M115.38 269.36a9.33 9.33 0 0 0 4.06 1c1.68 0 2.57-.7 2.57-1.75s-.77-1.58-2.71-2.28c-2.69-.94-4.44-2.42-4.44-4.78 0-2.76 2.3-4.87 6.12-4.87a9.91 9.91 0 0 1 4.13.82l-.82 3a7.68 7.68 0 0 0-3.38-.77c-1.58 0-2.35.72-2.35 1.56 0 1 .91 1.49 3 2.28 2.86 1.06 4.2 2.54 4.2 4.82 0 2.71-2.09 5-6.53 5a10.59 10.59 0 0 1-4.58-1zM131.9 257v6.22h6V257h3.65v16.18h-3.65v-6.77h-6v6.77h-3.67V257zM159.57 264.87c0 5.3-3.22 8.52-7.94 8.52s-7.61-3.62-7.61-8.23c0-4.85 3.1-8.47 7.87-8.47 4.97 0 7.68 3.72 7.68 8.18zm-11.69.22c0 3.17 1.49 5.4 3.94 5.4s3.89-2.35 3.89-5.5c0-2.9-1.39-5.4-3.91-5.4s-3.92 2.35-3.92 5.5zM162 257.17a30 30 0 0 1 4.94-.34 7.76 7.76 0 0 1 4.94 1.3 4.73 4.73 0 0 1 1.73 3.74 5.17 5.17 0 0 1-1.49 3.84 7.5 7.5 0 0 1-5.26 1.7 9.15 9.15 0 0 1-1.25-.07v5.78H162zm3.62 7.34a5.6 5.6 0 0 0 1.22.1c1.94 0 3.14-1 3.14-2.64 0-1.49-1-2.38-2.86-2.38a6.22 6.22 0 0 0-1.51.14z"/><path class="cls-1" d="M32.39 329.31H254.5v122.11H32.39z"/></g><path class="cls-2" d="M1.88 534.68a16.88 16.88 0 0 1-.9-5.09H1V15.37C.27 6.26 4.33.1 15.85 1h632.63a11.48 11.48 0 0 1 9.63 7" opacity=".13" id="Layer_3" data-name="Layer 3"/></svg>