<svg xmlns="http://www.w3.org/2000/svg" viewBox="0 0 660.02 537.85"><defs><style>.cls-6{fill:#fff}.cls-7{fill:#ed1c24}.cls-8{fill:#009245}.cls-9{fill:#b3b3b3}.cls-10{opacity:.8;isolation:isolate}.cls-11{fill:#f3f5f7}</style></defs><g id="Layer_1" data-name="Layer 1"><path d="M647.52 537.85H12.5A12.51 12.51 0 0 1 0 525.35V12.5A12.51 12.51 0 0 1 12.5 0h635A12.51 12.51 0 0 1 660 12.5v512.85a12.51 12.51 0 0 1-12.48 12.5zM12.5 1A11.51 11.51 0 0 0 1 12.5v512.85a11.51 11.51 0 0 0 11.5 11.5h635a11.51 11.51 0 0 0 11.5-11.5V12.5A11.51 11.51 0 0 0 647.52 1z" fill="#bfbfbf"/><path d="M1 71.07V12.5C.73 6.58 6 1 11.84 1h635.68c2.84-.24 11.4 2.16 11.5 11.5v58.57" fill="#1c1c1c"/><path d="M28.59 33.73c0-4.7 4.11-8.52 9.17-8.52s9.17 3.81 9.17 8.52-4.11 8.52-9.17 8.52-9.17-3.81-9.17-8.52" fill="#aaa"/><circle cx="69.87" cy="33.73" r="8.52" fill="#bcbcbc"/><ellipse cx="101.97" cy="33.73" rx="9.17" ry="8.52" fill="#afafaf"/><path class="cls-6" d="M572.4 54.9H147a6.41 6.41 0 0 1-6.41-6.41V20.75a6.41 6.41 0 0 1 6.41-6.4h425.4a6.4 6.4 0 0 1 6.39 6.41V48.5a6.4 6.4 0 0 1-6.39 6.4zM605 43.42h25.3a2.71 2.71 0 0 1 0 5.41H605a2.72 2.72 0 0 1 0-5.41zM605 33h25.3a2.6 2.6 0 0 1 0 5.2H605a2.6 2.6 0 0 1 0-5.2zM605 22.59h25.3a2.62 2.62 0 0 1 0 5.24H605a2.62 2.62 0 0 1 0-5.24z"/></g><g id="Layer_4" data-name="Layer 4"><g id="Layer_3" data-name="Layer 3"><path class="cls-7" d="M196.39 34c3.24 0 3.69-1.78 3.69-3.37a27.21 27.21 0 0 0-.36-3.8 26.52 26.52 0 0 1-.36-3.8c0-4.2 2.73-6 6.65-6h.99v2.49h-.82c-2.71 0-3.66 1.46-3.66 3.95a19.94 19.94 0 0 0 .32 3.24 21.28 21.28 0 0 1 .33 3.41c0 2.91-1.23 4.38-3.28 4.92v.09c2.05.5 3.32 2.05 3.28 5a20.81 20.81 0 0 1-.32 3.47 20.51 20.51 0 0 0-.33 3.3c0 2.55 1 4 3.6 4h.82v2.51h-.95c-3.8 0-6.65-1.64-6.65-6.25a25.88 25.88 0 0 1 .36-3.74 25.34 25.34 0 0 0 .36-3.69c0-1.41-.46-3.37-3.69-3.37z"/><path class="cls-8" d="M230.43 15.87v26.66a55.44 55.44 0 0 0 .18 5.7H227l-.18-3.8h-.09a8.16 8.16 0 0 1-7.52 4.33c-5.34 0-9.44-4.51-9.44-11.21 0-7.34 4.51-11.85 9.89-11.85 3.37 0 5.7 1.59 6.65 3.37h.09v-13.2zm-4 19.28a7.07 7.07 0 0 0-.21-1.69 5.9 5.9 0 0 0-5.79-4.65c-4.15 0-6.65 3.65-6.65 8.54 0 4.46 2.18 8.16 6.51 8.16a6 6 0 0 0 5.88-4.75 7 7 0 0 0 .18-1.73zM257 37c0 8.16-5.7 11.72-11 11.72-6 0-10.58-4.38-10.58-11.39 0-7.39 4.83-11.72 10.94-11.72C252.8 25.67 257 30.27 257 37zm-17.53.23c0 4.83 2.78 8.48 6.7 8.48s6.7-3.6 6.7-8.54c0-3.74-1.9-8.48-6.65-8.48s-6.71 4.37-6.71 8.55zM262.1 32.14c0-2.28 0-4.15-.18-6h3.51l.18 3.55h.13a7.59 7.59 0 0 1 6.93-4.05 6.52 6.52 0 0 1 6.24 4.44h.09a9.08 9.08 0 0 1 2.46-2.85 7.53 7.53 0 0 1 4.88-1.55c2.91 0 7.24 1.9 7.24 9.57v12.98h-3.92V35.74c0-4.23-1.55-6.79-4.75-6.79a5.19 5.19 0 0 0-4.75 3.65 6.65 6.65 0 0 0-.32 2v13.63h-3.92V35c0-3.51-1.55-6.06-4.6-6.06a5.48 5.48 0 0 0-5 4 5.53 5.53 0 0 0-.32 2v13.27h-3.9zM312.32 48.23l-.32-2.79h-.13a8.21 8.21 0 0 1-6.74 3.28c-4.46 0-6.74-3.14-6.74-6.33 0-5.34 4.75-8.25 13.29-8.2v-.46c0-1.82-.5-5.11-5-5.11a11 11 0 0 0-5.7 1.64l-.98-2.63a13.69 13.69 0 0 1 7.24-2c6.74 0 8.38 4.6 8.38 9v8.25a31 31 0 0 0 .36 5.29zM311.74 37c-4.38-.09-9.34.68-9.34 5a3.55 3.55 0 0 0 3.8 3.8 5.49 5.49 0 0 0 5.33-3.8 4.19 4.19 0 0 0 .23-1.27zM326.54 20a2.49 2.49 0 0 1-5 0 2.44 2.44 0 0 1 2.37-2.51h.13a2.38 2.38 0 0 1 2.46 2.3q.04.08.04.21zm-4.44 28.23V26.17h4v22.06zM332.74 32.14c0-2.28 0-4.15-.18-6h3.55l.23 3.65h.09a8.11 8.11 0 0 1 7.29-4.15c3.06 0 7.79 1.82 7.79 9.39v13.2h-4V35.51c0-3.55-1.32-6.51-5.11-6.51a5.7 5.7 0 0 0-5.4 4.1 5.76 5.76 0 0 0-.28 1.9v13.29h-4z"/><path class="cls-7" d="M366.36 36.29c-3.24 0-3.69 2-3.69 3.37a25.41 25.41 0 0 0 .36 3.69 25.88 25.88 0 0 1 .36 3.74c0 4.6-2.85 6.25-6.65 6.25h-.95v-2.51h.78c2.55 0 3.65-1.41 3.65-4a27.62 27.62 0 0 0-.32-3.28 20.65 20.65 0 0 1-.36-3.47c0-2.91 1.27-4.46 3.28-5V35c-2-.55-3.28-2-3.28-4.92a21.18 21.18 0 0 1 .36-3.47 26.89 26.89 0 0 0 .36-3.2c0-2.46-.95-3.87-3.6-3.92h-.82V17h.95c3.87 0 6.65 1.78 6.65 6a26.52 26.52 0 0 1-.36 3.8 27.29 27.29 0 0 0-.36 3.8c0 1.59.46 3.37 3.69 3.37z"/><path class="cls-9" d="M150.27 27.73h1.5v5.16a2.79 2.79 0 0 1 1.07-1.06 3.1 3.1 0 0 1 1.54-.43c1.11 0 2.85.68 2.85 3.54v4.93h-1.43v-4.75c0-1.33-.49-2.46-1.9-2.46a2.16 2.16 0 0 0-2 1.5 1.82 1.82 0 0 0-.1.72v5h-1.52zM161.5 29.22v2.37h2.16v1.15h-2.16v4.46c0 1 .29 1.6 1.13 1.6a3.32 3.32 0 0 0 .87-.1l.06 1.13a3.68 3.68 0 0 1-1.33.21 2.08 2.08 0 0 1-1.62-.64 3.07 3.07 0 0 1-.58-2.16v-4.5h-1.28v-1.15H160v-2zM167.15 29.22v2.37h2.16v1.15h-2.16v4.46c0 1 .29 1.6 1.13 1.6a3.32 3.32 0 0 0 .87-.1l.1 1.13a3.68 3.68 0 0 1-1.33.21 2.08 2.08 0 0 1-1.62-.64 3.07 3.07 0 0 1-.58-2.16v-4.5h-1.32v-1.15h1.28v-2zM171 34.3c0-1.06 0-1.9-.07-2.7h1.35l.07 1.42a3.26 3.26 0 0 1 2.94-1.6c2 0 3.5 1.69 3.5 4.21 0 3-1.81 4.44-3.8 4.44a2.91 2.91 0 0 1-2.54-1.3v4.5H171zm1.49 2.2a3.42 3.42 0 0 0 .07.62 2.33 2.33 0 0 0 2.26 1.76c1.59 0 2.52-1.3 2.52-3.2 0-1.66-.87-3.08-2.46-3.08a2.4 2.4 0 0 0-2.28 1.9 2.45 2.45 0 0 0-.1.62zM180.36 33a1 1 0 0 1 2 0 1 1 0 0 1-2 0zm0 6a1 1 0 0 1 2 0 1 1 0 0 1-2 0zM183 40.56l4.75-12.39h1.16l-4.76 12.39zM188.85 40.56l4.75-12.39h1.16L190 40.56zM369.47 39a1 1 0 0 1 .94-1.07h.12a1.08 1.08 0 1 1-1 1.14v-.06zM380.49 31.59c0 .6-.07 1.26-.07 2.27v4.79c0 1.9-.38 3.06-1.18 3.8a4.39 4.39 0 0 1-3 .95 5.34 5.34 0 0 1-2.75-.68l.38-1.15a4.67 4.67 0 0 0 2.43.65c1.54 0 2.67-.81 2.67-2.85v-.95a3 3 0 0 1-2.63 1.39c-2.05 0-3.52-1.75-3.52-4 0-2.85 1.83-4.4 3.73-4.4a2.75 2.75 0 0 1 2.54 1.47l.07-1.24zm-1.56 3.27a2.14 2.14 0 0 0-.09-.68 2.16 2.16 0 0 0-2.1-1.59c-1.43 0-2.46 1.22-2.46 3.12 0 1.62.82 3 2.44 3a2.2 2.2 0 0 0 2.09-1.54 2.59 2.59 0 0 0 .12-.81zM390.4 35.67a4 4 0 0 1-3.68 4.33h-.44a3.93 3.93 0 0 1-4-3.88v-.37a4 4 0 0 1 4.1-4.4 4 4 0 0 1 4.02 4.32zm-6.56.09c0 1.81 1 3.18 2.52 3.18s2.52-1.35 2.52-3.22c0-1.41-.7-3.18-2.48-3.18s-2.58 1.64-2.58 3.22zM392.09 38.33a3.94 3.94 0 0 0 2 .6c1.09 0 1.6-.55 1.6-1.23s-.43-1.11-1.54-1.52c-1.49-.53-2.18-1.35-2.18-2.34a2.55 2.55 0 0 1 2.85-2.43 4.13 4.13 0 0 1 2 .51l-.36 1.08a3.23 3.23 0 0 0-1.69-.47c-.89 0-1.39.51-1.39 1.13s.49.95 1.58 1.41c1.43.55 2.17 1.26 2.17 2.5C397.13 39 396 40 394 40a4.75 4.75 0 0 1-2.33-.56zM399.07 27.73h1.5v5.16a2.79 2.79 0 0 1 1.07-1.06 3.09 3.09 0 0 1 1.54-.43c1.11 0 2.85.68 2.85 3.54v4.93h-1.43v-4.75c0-1.33-.49-2.46-1.9-2.46a2.16 2.16 0 0 0-2 1.5 1.82 1.82 0 0 0-.1.72v5h-1.5zM416 35.67a4 4 0 0 1-3.64 4.33h-.44a3.93 3.93 0 0 1-4-3.88v-.37a4 4 0 0 1 4.1-4.4 4 4 0 0 1 3.98 4.32zm-6.56.09c0 1.81 1 3.18 2.52 3.18s2.52-1.35 2.52-3.22c0-1.41-.7-3.18-2.48-3.18s-2.58 1.64-2.58 3.22zM417.93 34.3c0-1.06 0-1.9-.07-2.7h1.35l.07 1.41a3.26 3.26 0 0 1 2.94-1.6c2 0 3.5 1.69 3.5 4.21 0 3-1.81 4.44-3.8 4.44a2.91 2.91 0 0 1-2.54-1.3v4.5h-1.49zm1.49 2.2a3.38 3.38 0 0 0 .07.62 2.32 2.32 0 0 0 2.3 1.76c1.59 0 2.52-1.3 2.52-3.2 0-1.66-.87-3.08-2.46-3.08a2.61 2.61 0 0 0-2.37 2.48zM427.65 33.83c0-.85 0-1.56-.07-2.24h1.33L429 33a3 3 0 0 1 2.73-1.56c1.15 0 2.92.68 2.92 3.52v4.94h-1.48v-4.78c0-1.33-.49-2.44-1.9-2.44a2.2 2.2 0 0 0-2.13 2.18v5h-1.5zM437.93 36a2.65 2.65 0 0 0 2.85 2.85 5.44 5.44 0 0 0 2.29-.43l.26 1.07a6.7 6.7 0 0 1-2.75.51 3.8 3.8 0 0 1-4.07-4.17c0-2.5 1.47-4.46 3.88-4.46 2.7 0 3.42 2.37 3.42 3.89a5.58 5.58 0 0 1 0 .7zm4.41-1.07a2.15 2.15 0 0 0-1.83-2.42h-.26a2.5 2.5 0 0 0-2.31 2.44zM445.7 34.3c0-1.06 0-1.9-.07-2.7H447V33a3.26 3.26 0 0 1 2.94-1.6c2 0 3.5 1.69 3.5 4.21 0 3-1.81 4.44-3.8 4.44a2.91 2.91 0 0 1-2.54-1.3v4.5h-1.49zm1.49 2.2a3.38 3.38 0 0 0 .07.62 2.32 2.32 0 0 0 2.26 1.76c1.59 0 2.52-1.3 2.52-3.2 0-1.66-.87-3.08-2.46-3.08a2.61 2.61 0 0 0-2.37 2.48zM460 39.87l-.12-1a3.09 3.09 0 0 1-2.53 1.23 2.35 2.35 0 0 1-2.53-2.17v-.21c0-2 1.78-3.09 5-3.08v-.17a1.71 1.71 0 0 0-1.9-1.9 4.12 4.12 0 0 0-2.16.62l-.34-.95a5.14 5.14 0 0 1 2.72-.73c2.53 0 3.14 1.73 3.14 3.38V38a11.72 11.72 0 0 0 .13 2zm-.24-4.22c-1.64 0-3.5.26-3.5 1.9a1.33 1.33 0 0 0 1.22 1.45h.2a2.06 2.06 0 0 0 2-1.39 1.56 1.56 0 0 0 .09-.47zM463.65 27.73h1.5v12.14h-1.5zM467.16 39a1 1 0 0 1 .94-1.07h.09a1.08 1.08 0 1 1-1 1.14l-.03-.07zM477 39.61a5.53 5.53 0 0 1-2.37.47 3.93 3.93 0 0 1-4.12-4.27 4.21 4.21 0 0 1 4-4.4h.44a5 5 0 0 1 2.09.43l-.39 1.16a3.49 3.49 0 0 0-1.75-.39 2.85 2.85 0 0 0-2.9 3.12 2.85 2.85 0 0 0 2.59 3.08h.26a4.28 4.28 0 0 0 1.84-.41zM486.1 35.67a4 4 0 0 1-3.68 4.33H482a3.93 3.93 0 0 1-4-3.88v-.37a4 4 0 0 1 4.1-4.4 4 4 0 0 1 4 4.32zm-6.56.09c0 1.81 1 3.18 2.52 3.18s2.52-1.35 2.52-3.22c0-1.41-.7-3.18-2.48-3.18s-2.56 1.64-2.56 3.21zM488 33.83c0-.85 0-1.56-.07-2.24h1.26l.07 1.33a2.85 2.85 0 0 1 2.6-1.52 2.45 2.45 0 0 1 2.34 1.66 3.41 3.41 0 0 1 1-1.06 2.85 2.85 0 0 1 1.83-.58c1.09 0 2.72.72 2.72 3.59v4.87h-1.47v-4.7c0-1.59-.58-2.54-1.79-2.54a2 2 0 0 0-1.78 1.36 2.47 2.47 0 0 0-.12.75v5.11h-1.47v-4.94c0-1.32-.58-2.27-1.73-2.27a2.24 2.24 0 0 0-1.93 2.21v5H488z"/></g><g class="cls-10"><path class="cls-11" d="M618.77 429.65H450.46c-.88 0-1.6-.52-1.6-1.18v-81c0-.66.72-1.18 1.6-1.18h168.3c.88 0 1.6.52 1.6 1.18v81c0 .65-.72 1.18-1.59 1.18zm-198.65 0H249.2c-.88 0-1.6-.52-1.6-1.18v-81c0-.66.72-1.18 1.6-1.18h170.91c.89 0 1.6.52 1.6 1.18v81c0 .65-.71 1.18-1.6 1.18zm-202.86 0H46.35c-.89 0-1.6-.52-1.6-1.18v-81c0-.66.71-1.18 1.6-1.18h170.91c.88 0 1.6.52 1.6 1.18v81c-.01.65-.73 1.18-1.6 1.18z"/></g><g class="cls-10"><path class="cls-11" d="M177.08 321.68H45.58c-.27 0-.49-1-.49-2.14v-166.6c0-1.18.22-2.14.49-2.14h131.5c.27 0 .49 1 .49 2.14v166.6c0 1.18-.22 2.14-.49 2.14z"/></g><g class="cls-10"><path class="cls-11" d="M619.23 320.57h-131.5c-.27 0-.49-1-.49-2.14V151.84c0-1.18.22-2.14.49-2.14h131.5c.27 0 .49 1 .49 2.14v166.6c0 1.18-.22 2.13-.49 2.13z"/></g><g class="cls-10"><path class="cls-11" d="M473.5 321.68H194.13c-.58 0-1-1-1-2.14v-166.6c0-1.18.47-2.14 1-2.14H473.5c.58 0 1 1 1 2.14v166.6c.05 1.18-.42 2.14-1 2.14z"/></g></g></svg>