<svg xmlns="http://www.w3.org/2000/svg" viewBox="0 0 660.02 537.85"><defs><style>.cls-1{fill:none}.cls-2{fill:#fff}.cls-9{fill:#39b54a}.cls-11{fill:#1a1a1a}.cls-12{fill:#0c2d02}</style><clipPath id="clip-path"><path class="cls-1" d="M62.6 141.72h238v254.67h-238z"/></clipPath></defs><g id="Layer_1" data-name="Layer 1"><path class="cls-2" d="M647.91 536.93H12.5c-7.31-.4-12.06-5.46-12.5-12.48L1 70.18h659v454.27c-.84 7.65-5 11.65-12.09 12.48z"/><path d="M647.52 537.85H12.5A12.51 12.51 0 0 1 0 525.35V12.5A12.51 12.51 0 0 1 12.5 0h635A12.51 12.51 0 0 1 660 12.5v512.85a12.51 12.51 0 0 1-12.48 12.5zM12.5 1A11.51 11.51 0 0 0 1 12.5v512.85a11.51 11.51 0 0 0 11.5 11.5h635a11.51 11.51 0 0 0 11.5-11.5V12.5A11.51 11.51 0 0 0 647.52 1z" fill="#bfbfbf"/><path d="M1 71.07V12.5C.73 6.58 6 1 11.84 1h635.68c2.84-.24 11.4 2.16 11.5 11.5v58.57" fill="#1c1c1c"/><path d="M28.59 33.73c0-4.7 4.11-8.52 9.17-8.52s9.17 3.81 9.17 8.52-4.11 8.52-9.17 8.52-9.17-3.81-9.17-8.52" fill="#aaa"/><circle cx="69.87" cy="33.73" r="8.52" fill="#bcbcbc"/><ellipse cx="101.97" cy="33.73" rx="9.17" ry="8.52" fill="#afafaf"/><path class="cls-2" d="M572.4 54.9H147a6.41 6.41 0 0 1-6.41-6.41V20.75a6.41 6.41 0 0 1 6.41-6.4h425.4a6.4 6.4 0 0 1 6.39 6.41V48.5a6.4 6.4 0 0 1-6.39 6.4zM605 43.42h25.3a2.71 2.71 0 0 1 0 5.41H605a2.72 2.72 0 0 1 0-5.41zM605 33h25.3a2.6 2.6 0 0 1 0 5.2H605a2.6 2.6 0 0 1 0-5.2zM605 22.59h25.3a2.62 2.62 0 0 1 0 5.24H605a2.62 2.62 0 0 1 0-5.24z"/></g><g clip-path="url(#clip-path)" id="Layer_5" data-name="Layer 5"><path class="cls-2" d="M76.93 242.39h94v110.67h-94z"/><path class="cls-9" d="M175.93 358.06h-104V237.39h104zm-94-10h84V247.39h-84z"/><path class="cls-9" d="M59.32 188.37h259.34v208.02H59.32z"/><path fill="#006837" d="M69.5 192.81h224.77v178.91H69.5z"/><path class="cls-9" d="M299.27 376.72H64.5V187.81h234.77zm-224.77-10h214.77V197.81H74.5z"/><path class="cls-11" d="M62.11 141.46h245.5v52H62.11z"/><path class="cls-11" transform="rotate(45 179.805 193.728)" d="M160.87 176.07h37.87v35.3h-37.87z"/><path class="cls-11" transform="rotate(45 151.8 193.717)" d="M132.87 176.07h37.87v35.3h-37.87z"/><path class="cls-11" transform="rotate(45 125.808 193.721)" d="M106.87 176.07h37.87v35.3h-37.87z"/><path class="cls-11" transform="rotate(45 97.807 193.723)" d="M78.87 176.07h37.87v35.3H78.87z"/><path class="cls-11" transform="rotate(45 72.806 193.727)" d="M53.87 176.07h37.87v35.3H53.87z"/><path class="cls-11" transform="rotate(45 208.14 193.715)" d="M189.2 176.07h37.87v35.3H189.2z"/><path class="cls-11" transform="rotate(45 233.798 193.722)" d="M214.87 176.07h37.87v35.3h-37.87z"/><path class="cls-11" transform="rotate(45 263.737 193.723)" d="M244.8 176.07h37.87v35.3H244.8z"/><path class="cls-11" transform="rotate(45 287.737 193.724)" d="M268.8 176.07h37.87v35.3H268.8z"/><path class="cls-2" d="M152.49 175.73a9.33 9.33 0 0 0 4.06 1c1.68 0 2.57-.7 2.57-1.75s-.77-1.58-2.71-2.28c-2.69-.94-4.44-2.42-4.44-4.78 0-2.76 2.3-4.87 6.12-4.87a9.91 9.91 0 0 1 4.13.82l-.82 3a7.68 7.68 0 0 0-3.38-.77c-1.58 0-2.35.72-2.35 1.56 0 1 .91 1.49 3 2.28 2.86 1.06 4.2 2.54 4.2 4.82 0 2.71-2.09 5-6.53 5a10.59 10.59 0 0 1-4.58-1zM169 163.33v6.22h6v-6.22h3.65v16.17H175v-6.77h-6v6.77h-3.67v-16.17zM196.67 171.25c0 5.3-3.22 8.52-7.94 8.52s-7.61-3.62-7.61-8.23c0-4.85 3.1-8.47 7.87-8.47 5.01-.01 7.68 3.71 7.68 8.18zm-11.69.22c0 3.17 1.49 5.4 3.94 5.4s3.89-2.35 3.89-5.5c0-2.9-1.39-5.4-3.91-5.4s-3.9 2.35-3.9 5.49zM199.07 163.54a30 30 0 0 1 4.94-.34 7.76 7.76 0 0 1 4.94 1.3 4.73 4.73 0 0 1 1.73 3.74 5.17 5.17 0 0 1-1.49 3.84 7.5 7.5 0 0 1-5.26 1.7 9.15 9.15 0 0 1-1.25-.07v5.78h-3.62zm3.62 7.34a5.6 5.6 0 0 0 1.22.1c1.94 0 3.14-1 3.14-2.64 0-1.49-1-2.38-2.86-2.38a6.22 6.22 0 0 0-1.51.14z"/><path class="cls-1" d="M69.5 235.69h222.11V357.8H69.5z"/><path class="cls-12" d="M93.97 281.2h29.14v23.33H93.97zM130.97 281.2h29.14v23.33h-29.14zM168.07 281.2h29.14v23.33h-29.14zM204.67 281.2h29.14v23.33h-29.14zM240.65 280.22h29.14v23.33h-29.14zM93.97 248.87h29.14v23.33H93.97zM130.97 248.87h29.14v23.33h-29.14zM168.08 248.87h29.14v23.33h-29.14zM204.67 248.87h29.14v23.33h-29.14zM240.65 247.89h29.14v23.33h-29.14zM94.74 314.52h29.14v23.33H94.74zM131.74 314.52h29.14v23.33h-29.14zM168.84 314.52h29.14v23.33h-29.14zM205.43 314.52h29.14v23.33h-29.14zM241.41 313.54h29.14v23.33h-29.14z"/></g><g id="Layer_6" data-name="Layer 6"><rect class="cls-2" x="357.75" y="385.38" width="228.09" height="92.67" rx="12" ry="12"/><path d="M573.84 479.55H369.75a13.51 13.51 0 0 1-13.5-13.5v-68.67a13.51 13.51 0 0 1 13.5-13.5h204.09a13.51 13.51 0 0 1 13.5 13.5V466a13.51 13.51 0 0 1-13.5 13.55zm-204.09-92.67a10.51 10.51 0 0 0-10.5 10.5V466a10.51 10.51 0 0 0 10.5 10.5h204.09a10.51 10.51 0 0 0 10.5-10.5v-68.62a10.51 10.51 0 0 0-10.5-10.5z"/><path d="M370.83 402.68h12.83v12.83h-12.83zM387.5 402.68h12.83v12.83H387.5zM405.08 402.68h12.83v12.83h-12.83zM421.75 402.68h12.83v12.83h-12.83zM437.04 402.68h12.83v12.83h-12.83zM453.71 402.68h12.83v12.83h-12.83zM471.29 402.68h12.83v12.83h-12.83zM487.96 402.68h12.83v12.83h-12.83zM504.83 402.68h12.83v12.83h-12.83zM521.5 402.68h12.83v12.83H521.5zM539.08 402.68h12.83v12.83h-12.83zM555.75 402.68h12.83v12.83h-12.83zM394.75 418.88h12.83v12.83h-12.83zM412.33 418.88h12.83v12.83h-12.83zM430 418.88h12.83v12.83H430zM446.29 418.88h12.83v12.83h-12.83zM462.96 418.88h12.83v12.83h-12.83zM480.54 418.88h12.83v12.83h-12.83zM497.21 418.88h12.83v12.83h-12.83zM514.08 418.88h12.83v12.83h-12.83zM530.75 418.88h12.83v12.83h-12.83zM548.33 418.88h20.25v12.83h-20.25zM370.83 418.88h20.25v12.83h-20.25zM403.29 435.08h12.83v12.83h-12.83zM420.88 435.08h12.83v12.83h-12.83zM438.54 435.08h12.83v12.83h-12.83zM454.83 435.08h12.83v12.83h-12.83zM471.5 435.08h12.83v12.83H471.5zM489.08 435.08h12.83v12.83h-12.83zM505.75 435.08h12.83v12.83h-12.83zM522.63 435.08h12.83v12.83h-12.83zM539.29 435.08h29.29v12.83h-29.29zM370.83 435.08h29.29v12.83h-29.29zM370.71 451.75h12.83v12.83h-12.83zM388.29 451.75h12.83v12.83h-12.83zM405.96 451.75h12.83v12.83h-12.83zM521.46 453.28h12.83v12.83h-12.83zM539.04 453.28h12.83v12.83h-12.83zM556.71 453.28h12.83v12.83h-12.83zM423.58 451.75h90.5v12.83h-90.5zM488 383.85c-35.2-43.6-66.84-52.14-96.62-63.75-45.33-17.67-80.42-35-90.73-69.92v-7c12.51 45.9 59 62.63 90.89 73.65 28.85 10 64.76 22.36 100.68 66.85z"/></g><path class="cls-2" d="M1.88 534.68a16.88 16.88 0 0 1-.9-5.09H1V15.37C.27 6.26 4.33.1 15.85 1h632.63a11.48 11.48 0 0 1 9.63 7" opacity=".13" id="Layer_3" data-name="Layer 3"/></svg>