<svg xmlns="http://www.w3.org/2000/svg" viewBox="0 0 660.02 537.85"><defs><style>.cls-1{fill:none}.cls-3{fill:#fff}.cls-4{fill:#39b54a}.cls-11{fill:#1a1a1a}</style><clipPath id="clip-path"><path class="cls-1" d="M157.47 211.12h238v254.67h-238z"/></clipPath></defs><g id="Layer_1" data-name="Layer 1"><path d="M647.52 537.85H12.5A12.51 12.51 0 0 1 0 525.35V12.5A12.51 12.51 0 0 1 12.5 0h635A12.51 12.51 0 0 1 660 12.5v512.85a12.51 12.51 0 0 1-12.48 12.5zM12.5 1A11.51 11.51 0 0 0 1 12.5v512.85a11.51 11.51 0 0 0 11.5 11.5h635a11.51 11.51 0 0 0 11.5-11.5V12.5A11.51 11.51 0 0 0 647.52 1z" fill="#bfbfbf"/><path class="cls-3" d="M171.8 311.79h94v110.67h-94z"/><path class="cls-4" d="M270.81 427.46h-104V306.79h104zm-94-10h84V316.79h-84z"/><path d="M1 71.07V12.5C.73 6.58 6 1 11.84 1h635.68c2.84-.24 11.4 2.16 11.5 11.5v58.57" fill="#1c1c1c"/><path d="M28.59 33.73c0-4.7 4.11-8.52 9.17-8.52s9.17 3.81 9.17 8.52-4.11 8.52-9.17 8.52-9.17-3.81-9.17-8.52" fill="#aaa"/><circle cx="69.87" cy="33.73" r="8.52" fill="#bcbcbc"/><ellipse cx="101.97" cy="33.73" rx="9.17" ry="8.52" fill="#afafaf"/><path class="cls-3" d="M572.4 54.9H147a6.41 6.41 0 0 1-6.41-6.41V20.75a6.41 6.41 0 0 1 6.41-6.4h425.4a6.4 6.4 0 0 1 6.39 6.41V48.5a6.4 6.4 0 0 1-6.39 6.4zM605 43.42h25.3a2.71 2.71 0 0 1 0 5.41H605a2.72 2.72 0 0 1 0-5.41zM605 33h25.3a2.6 2.6 0 0 1 0 5.2H605a2.6 2.6 0 0 1 0-5.2zM605 22.59h25.3a2.62 2.62 0 0 1 0 5.24H605a2.62 2.62 0 0 1 0-5.24z"/></g><g clip-path="url(#clip-path)" id="Layer_2" data-name="Layer 2"><path class="cls-4" d="M153.44 257.77h259.34v208.02H153.44z"/><path fill="#006837" d="M164.37 262.21h224.77v178.91H164.37z"/><path class="cls-4" d="M394.14 446.12H159.37V257.21h234.77zm-224.77-10h214.77V267.21H169.37z"/><path class="cls-11" d="M156.98 210.86h245.5v52h-245.5z"/><path class="cls-11" transform="rotate(45 274.68 263.126)" d="M255.74 245.48h37.87v35.3h-37.87z"/><path class="cls-11" transform="rotate(45 246.679 263.128)" d="M227.74 245.48h37.87v35.3h-37.87z"/><path class="cls-11" transform="rotate(45 220.67 263.125)" d="M201.74 245.48h37.87v35.3h-37.87z"/><path class="cls-11" transform="rotate(45 192.67 263.126)" d="M173.74 245.48h37.87v35.3h-37.87z"/><path class="cls-11" transform="rotate(45 167.68 263.125)" d="M148.74 245.48h37.87v35.3h-37.87z"/><path class="cls-11" transform="rotate(45 303.008 263.13)" d="M284.07 245.48h37.87v35.3h-37.87z"/><path class="cls-11" transform="rotate(45 328.672 263.12)" d="M309.74 245.48h37.87v35.3h-37.87z"/><path class="cls-11" transform="rotate(45 358.6 263.127)" d="M339.67 245.48h37.87v35.3h-37.87z"/><path class="cls-11" transform="rotate(45 382.599 263.128)" d="M363.67 245.48h37.87v35.3h-37.87z"/><path class="cls-3" d="M247.36 245.14a9.33 9.33 0 0 0 4.06 1c1.68 0 2.57-.7 2.57-1.75s-.77-1.58-2.71-2.28c-2.69-.94-4.44-2.42-4.44-4.78 0-2.76 2.3-4.87 6.12-4.87a9.91 9.91 0 0 1 4.13.82l-.82 3a7.68 7.68 0 0 0-3.38-.77c-1.58 0-2.35.72-2.35 1.56 0 1 .91 1.49 3 2.28 2.86 1.06 4.2 2.54 4.2 4.82 0 2.71-2.09 5-6.53 5a10.59 10.59 0 0 1-4.58-1zM263.87 232.73v6.22h6v-6.22h3.65v16.17h-3.65v-6.77h-6v6.77h-3.67v-16.17zM291.54 240.65c0 5.3-3.22 8.52-7.94 8.52s-7.61-3.62-7.61-8.23c0-4.85 3.1-8.47 7.87-8.47 4.97-.01 7.68 3.71 7.68 8.18zm-11.69.22c0 3.17 1.49 5.4 3.94 5.4s3.89-2.35 3.89-5.5c0-2.9-1.39-5.4-3.91-5.4s-3.92 2.35-3.92 5.49zM293.94 232.94a30 30 0 0 1 4.94-.34 7.76 7.76 0 0 1 4.94 1.3 4.73 4.73 0 0 1 1.73 3.74 5.17 5.17 0 0 1-1.49 3.84 7.5 7.5 0 0 1-5.26 1.7 9.15 9.15 0 0 1-1.25-.07v5.78h-3.62zm3.62 7.34a5.6 5.6 0 0 0 1.22.1c1.94 0 3.14-1 3.14-2.64 0-1.49-1-2.38-2.86-2.38a6.22 6.22 0 0 0-1.51.14z"/><path class="cls-1" d="M164.37 305.09h222.11V427.2H164.37z"/></g><g id="Layer_4" data-name="Layer 4"><path d="M403.48 275.14a48.63 48.63 0 0 0-6.65 9l-8.37-1.14a5.43 5.43 0 0 0-6 4l-3.15 12.4a5.41 5.41 0 0 0 3.33 6.4l7.84 3a47.8 47.8 0 0 0 1.59 11.55l-6.77 5.18a5.42 5.42 0 0 0-1.37 7.08l6.54 11a5.42 5.42 0 0 0 6.88 2.17l7.5-3.37a48.35 48.35 0 0 0 9.88 7.51l-1.07 8a5.43 5.43 0 0 0 4 6l12.4 3.15a5.41 5.41 0 0 0 6.4-3.33l2.86-7.47a47.23 47.23 0 0 0 12.14-1.72l4.66 6.11a5.42 5.42 0 0 0 7.08 1.37l11-6.54a5.42 5.42 0 0 0 2.17-6.88l-3.09-6.91a47.53 47.53 0 0 0 7.29-9.62l7.39 1a5.43 5.43 0 0 0 6-4l3.14-12.37a5.41 5.41 0 0 0-3.33-6.4l-6.77-2.56a47.69 47.69 0 0 0-1.78-12.63l5.88-4.5a5.42 5.42 0 0 0 1.37-7.08l-6.54-11a5.42 5.42 0 0 0-6.88-2.17l-6.75 3a47.49 47.49 0 0 0-10.55-7.76l1-7.45a5.43 5.43 0 0 0-4-6l-12.4-3.15a5.41 5.41 0 0 0-6.4 3.33l-2.84 7.42a46.62 46.62 0 0 0-12 1.95l-4.81-6.32a5.42 5.42 0 0 0-7.08-1.37l-11 6.54a5.42 5.42 0 0 0-2.17 6.88zm53.45 22.13a21.15 21.15 0 1 1-29-7.36 21.18 21.18 0 0 1 29 7.36z" fill="#d64700"/><path d="M489.17 425.26l1.45-8.72a5.34 5.34 0 0 0-3.8-6l-4.91-1.42a38.54 38.54 0 0 0-2.32-10.19l3.88-3.53a5.39 5.39 0 0 0 .77-7.09l-5.15-7.18a5.37 5.37 0 0 0-6.95-1.58l-4.58 2.53a38.65 38.65 0 0 0-9.15-5.6l.26-5.34a5.35 5.35 0 0 0-4.47-5.54l-8.75-1.42a5.34 5.34 0 0 0-6 3.8l-1.58 5.48a39.94 39.94 0 0 0-9.64 2.4l-3.83-4.21a5.39 5.39 0 0 0-7.09-.77L410.1 376a5.37 5.37 0 0 0-1.58 6.95l2.91 5.27a39.35 39.35 0 0 0-4.82 7.83l-6.08-.29a5.35 5.35 0 0 0-5.54 4.47l-1.44 8.77a5.34 5.34 0 0 0 3.8 6l5.81 1.68a38.69 38.69 0 0 0 2.09 9.3l-4.57 4.14a5.39 5.39 0 0 0-.77 7.09l5.15 7.18a5.37 5.37 0 0 0 6.95 1.58l5.18-2.86a39.61 39.61 0 0 0 8.58 5.44l-.27 5.82a5.35 5.35 0 0 0 4.5 5.53l8.72 1.45a5.34 5.34 0 0 0 6-3.8l1.57-5.5a38.59 38.59 0 0 0 9.79-2.24l3.68 4a5.39 5.39 0 0 0 7.09.77l7.18-5.15a5.37 5.37 0 0 0 1.58-6.95l-2.6-4.71a38.92 38.92 0 0 0 5.3-8.36l5.29.26a5.33 5.33 0 0 0 5.57-4.41zm-60.73-2.48a17.31 17.31 0 1 1 24.15 4 17.31 17.31 0 0 1-24.15-4z" fill="#026b99"/><path d="M352.42 341.4a5.35 5.35 0 0 0-7-1.43l-4.69 2.72a5.34 5.34 0 0 0-2.23 6.77l1.6 3.69a30.92 30.92 0 0 0-4.5 6l-4-.59a5.34 5.34 0 0 0-5.95 3.92l-1.39 5.24a5.35 5.35 0 0 0 3.22 6.37l3.75 1.48a31.3 31.3 0 0 0 1 7.7l-3.32 2.47a5.35 5.35 0 0 0-1.43 7l2.72 4.69a5.34 5.34 0 0 0 6.77 2.23l3.6-1.57a32.2 32.2 0 0 0 6.52 5.09l-.55 3.82a5.34 5.34 0 0 0 3.92 5.95l5.24 1.39a5.35 5.35 0 0 0 6.37-3.22l1.39-3.49a31.08 31.08 0 0 0 8.11-1l2.13 2.87a5.35 5.35 0 0 0 7 1.43l4.69-2.72a5.34 5.34 0 0 0 2.23-6.77l-1.39-3.21a32.28 32.28 0 0 0 4.94-6.36l3.39.5a5.34 5.34 0 0 0 5.95-3.92l1.39-5.24a5.35 5.35 0 0 0-3.22-6.37l-3-1.21a31.52 31.52 0 0 0-1.08-8.43l2.72-2a5.35 5.35 0 0 0 1.43-7l-2.72-4.69a5.34 5.34 0 0 0-6.77-2.23l-3.09 1.34a32.37 32.37 0 0 0-7-5.25l.51-3.42a5.34 5.34 0 0 0-3.92-5.95l-5.27-1.4a5.35 5.35 0 0 0-6.37 3.22l-1.37 3.48a31.36 31.36 0 0 0-8 1.2zm23.16 26.94a14.1 14.1 0 1 1-19.27-5.14 14.11 14.11 0 0 1 19.27 5.13z" fill="#b6ba08"/></g></svg>