<svg xmlns="http://www.w3.org/2000/svg" width="839.381" height="520.478" viewBox="0 0 839.381 520.478"><path fill="#3BB54A" d="M624.029 110.055c32.739 0 63.519 12.749 86.669 35.9 23.15 23.15 35.9 53.93 35.9 86.669s-12.749 63.519-35.9 86.669c-23.15 23.15-53.93 35.9-86.669 35.9s-63.519-12.749-86.669-35.9c-23.15-23.15-35.9-53.93-35.9-86.669s12.749-63.519 35.9-86.669c23.15-23.151 53.93-35.9 86.669-35.9m0-32c-85.366 0-154.569 69.203-154.569 154.569s69.203 154.569 154.569 154.569 154.569-69.203 154.569-154.569S709.395 78.055 624.029 78.055z"/><path d="M569.926 239.33c0 1.703-.247 3.216-.739 4.538-.493 1.323-1.166 2.471-2.017 3.445a11.566 11.566 0 0 1-3.025 2.454 18.381 18.381 0 0 1-3.748 1.597 25.09 25.09 0 0 1-4.185.874 35.532 35.532 0 0 1-4.337.269c-1.927 0-3.63-.123-5.109-.37s-2.891-.644-4.235-1.193-2.684-1.26-4.017-2.134-2.818-1.938-4.453-3.193l6.621-5.412a11.75 11.75 0 0 0 2.403 3.109 20.55 20.55 0 0 0 3.109 2.404c1.076.672 2.118 1.188 3.126 1.546 1.009.359 1.826.538 2.454.538.516 0 1.098-.017 1.748-.051.649-.033 1.311-.101 1.983-.202s1.333-.252 1.983-.454a6.322 6.322 0 0 0 1.73-.824c.504-.347.907-.784 1.21-1.311s.454-1.16.454-1.899c0-.762-.196-1.429-.588-2a5.743 5.743 0 0 0-1.53-1.496 9.665 9.665 0 0 0-2.15-1.076c-.808-.291-1.62-.549-2.438-.773s-1.608-.42-2.37-.588-1.423-.331-1.982-.487a212.165 212.165 0 0 0-3.261-.891 45.17 45.17 0 0 1-3.396-1.042 23.532 23.532 0 0 1-3.21-1.395 11.557 11.557 0 0 1-2.688-1.933 8.546 8.546 0 0 1-1.849-2.655c-.46-1.02-.689-2.213-.689-3.58 0-2.509.498-4.61 1.496-6.302.996-1.692 2.313-3.047 3.949-4.067s3.496-1.742 5.58-2.168 4.201-.639 6.353-.639c1.479 0 3.036.151 4.673.454 1.635.303 3.227.751 4.772 1.345a24.464 24.464 0 0 1 4.337 2.168c1.344.852 2.465 1.827 3.361 2.924l-6.622 5.445c-.493-1.344-1.138-2.499-1.933-3.462-.796-.963-1.659-1.753-2.589-2.37a10.735 10.735 0 0 0-2.856-1.361c-.976-.291-1.878-.437-2.706-.437-.807 0-1.715.034-2.723.101a10.584 10.584 0 0 0-2.841.571c-.886.314-1.636.79-2.252 1.429s-.925 1.519-.925 2.639c0 .807.186 1.496.555 2.067.37.571.857 1.064 1.463 1.479a9.113 9.113 0 0 0 2.067 1.042c.772.28 1.563.526 2.369.739a43.9 43.9 0 0 0 2.354.555 25.29 25.29 0 0 1 2.05.504c1.03.292 2.123.588 3.277.891 1.154.302 2.291.65 3.412 1.042 1.12.392 2.201.852 3.243 1.378a11.079 11.079 0 0 1 2.74 1.933 8.89 8.89 0 0 1 1.882 2.672c.473 1.019.709 2.223.709 3.613zm46.857-9.849c0 2.622-.319 5.356-.958 8.202a50.144 50.144 0 0 1-2.673 8.37 46.476 46.476 0 0 1-4.101 7.714c-1.592 2.409-3.34 4.488-5.244 6.235l-4.269-2.319a32.871 32.871 0 0 0 1.714-3.764 49.024 49.024 0 0 0 1.463-4.42 79.04 79.04 0 0 0 2.05-9.748c.235-1.625.415-3.204.538-4.739.123-1.535.185-2.963.185-4.286 0-.874-.033-1.81-.101-2.807-.067-.997-.207-1.994-.42-2.991s-.499-1.955-.857-2.874c-.358-.918-.835-1.726-1.429-2.42s-1.311-1.254-2.151-1.681c-.84-.425-1.832-.639-2.975-.639-1.121 0-2.117.252-2.991.756s-1.647 1.166-2.319 1.983a12.666 12.666 0 0 0-1.731 2.807 21.221 21.221 0 0 0-1.177 3.244 23.574 23.574 0 0 0-.655 3.277 23.645 23.645 0 0 0-.201 2.891v19.462h-11.396v-53.109h11.361v20c1.457-2.128 3.244-3.77 5.361-4.924 2.118-1.154 4.465-1.731 7.042-1.731 2.689 0 5.031.437 7.025 1.311 1.994.874 3.652 2.09 4.975 3.647s2.309 3.406 2.958 5.546c.651 2.139.976 4.475.976 7.007zm48.504 2.756c0 2.017-.269 3.911-.807 5.681a19.921 19.921 0 0 1-2.235 4.907c-.953 1.501-2.101 2.852-3.445 4.051s-2.818 2.213-4.42 3.042a23.543 23.543 0 0 1-10.774 2.588c-1.928 0-3.799-.224-5.613-.672a23.215 23.215 0 0 1-5.126-1.916 21.367 21.367 0 0 1-4.421-3.042 19.139 19.139 0 0 1-3.445-4.051 19.872 19.872 0 0 1-2.235-4.924c-.537-1.781-.807-3.669-.807-5.664 0-1.994.27-3.882.807-5.664a19.856 19.856 0 0 1 2.235-4.924 19.193 19.193 0 0 1 3.445-4.051 21.445 21.445 0 0 1 4.421-3.042 23.265 23.265 0 0 1 5.126-1.916 23.33 23.33 0 0 1 5.613-.672 23.543 23.543 0 0 1 10.774 2.588 21.465 21.465 0 0 1 4.42 3.042 19.164 19.164 0 0 1 3.445 4.051 19.872 19.872 0 0 1 2.235 4.924c.539 1.781.807 3.67.807 5.664zm-11.563 0a33.53 33.53 0 0 0-.185-3.412c-.123-1.198-.331-2.375-.622-3.529s-.688-2.263-1.193-3.328a10.963 10.963 0 0 0-1.865-2.79 8.504 8.504 0 0 0-2.655-1.916c-1.031-.481-2.23-.723-3.597-.723-1.3 0-2.454.247-3.462.739a8.772 8.772 0 0 0-2.639 1.967c-.751.818-1.379 1.765-1.883 2.84s-.913 2.19-1.227 3.344a23.515 23.515 0 0 0-.673 3.496c-.134 1.176-.201 2.28-.201 3.311s.067 2.135.201 3.311c.135 1.177.358 2.348.673 3.513a19.772 19.772 0 0 0 1.227 3.345 11.267 11.267 0 0 0 1.883 2.823 8.772 8.772 0 0 0 2.639 1.967c1.008.493 2.162.739 3.462.739 1.345 0 2.532-.241 3.563-.723a8.55 8.55 0 0 0 2.673-1.933 10.761 10.761 0 0 0 1.865-2.79c.493-1.053.891-2.163 1.193-3.328s.516-2.342.639-3.53c.122-1.186.184-2.317.184-3.393zm60 0c0 2.824-.426 5.468-1.277 7.933-.852 2.465-2.084 4.611-3.697 6.437-1.613 1.827-3.586 3.266-5.916 4.319-2.331 1.053-4.975 1.58-7.933 1.58-2.264 0-4.342-.442-6.235-1.328-1.894-.885-3.513-2.246-4.857-4.084v22.555h-11.361v-56.74h4.37l5.042 8.437a14.206 14.206 0 0 1 2.033-3.849 13.841 13.841 0 0 1 2.992-2.958 13.571 13.571 0 0 1 8.016-2.571c2.958 0 5.602.527 7.933 1.58 2.33 1.054 4.303 2.493 5.916 4.319 1.613 1.827 2.846 3.972 3.697 6.437.851 2.466 1.277 5.11 1.277 7.933zm-11.53 0c0-.985-.05-2.033-.151-3.143-.101-1.109-.274-2.213-.521-3.311s-.589-2.151-1.025-3.16-.991-1.899-1.664-2.672a7.52 7.52 0 0 0-2.437-1.849c-.953-.459-2.057-.689-3.312-.689-1.3 0-2.426.224-3.378.672a7.488 7.488 0 0 0-2.454 1.832 10.11 10.11 0 0 0-1.681 2.656 17.148 17.148 0 0 0-1.024 3.143c-.247 1.099-.421 2.208-.521 3.328s-.151 2.185-.151 3.193c0 .897.067 1.888.202 2.975.134 1.087.347 2.18.639 3.277.291 1.098.672 2.163 1.143 3.193s1.047 1.949 1.731 2.756a8.06 8.06 0 0 0 2.386 1.933c.908.482 1.944.723 3.109.723 1.277 0 2.387-.229 3.328-.689a7.566 7.566 0 0 0 2.42-1.849c.673-.773 1.228-1.664 1.664-2.672s.778-2.062 1.025-3.16a25.79 25.79 0 0 0 .521-3.328 34.88 34.88 0 0 0 .151-3.159zM487.073 432.272c0 5.758-.701 11.762-2.104 18.011a109.949 109.949 0 0 1-5.868 18.379 102.113 102.113 0 0 1-9.005 16.94c-3.495 5.289-7.333 9.854-11.515 13.692l-9.374-5.094c1.328-2.461 2.583-5.216 3.764-8.267a106.359 106.359 0 0 0 3.211-9.706c.96-3.42 1.82-6.95 2.584-10.593a175.987 175.987 0 0 0 1.919-10.813c.517-3.567.91-7.036 1.181-10.407.271-3.37.406-6.507.406-9.411 0-1.919-.074-3.974-.222-6.163s-.455-4.38-.923-6.569-1.096-4.293-1.882-6.312c-.788-2.017-1.834-3.788-3.137-5.314a15.177 15.177 0 0 0-4.725-3.69c-1.845-.935-4.022-1.402-6.532-1.402-2.461 0-4.65.554-6.569 1.66-1.919 1.107-3.617 2.56-5.093 4.355-1.477 1.797-2.744 3.851-3.802 6.163-1.059 2.313-1.919 4.688-2.583 7.123s-1.145 4.835-1.439 7.197c-.295 2.361-.443 4.478-.443 6.348v42.737H399.9v-85.254h9.596l11.441 19.855c1.377-3.296 3.1-6.298 5.167-9.005 2.066-2.705 4.403-5.02 7.012-6.938 2.607-1.919 5.499-3.396 8.673-4.429s6.606-1.55 10.297-1.55c5.905 0 11.047.96 15.427 2.879s8.021 4.589 10.925 8.009c2.902 3.42 5.067 7.48 6.495 12.179 1.426 4.701 2.14 9.83 2.14 15.39zm98.466-8.414c0 3.494-.566 6.606-1.697 9.337-1.133 2.731-2.67 5.13-4.613 7.197a27.804 27.804 0 0 1-6.754 5.24 43.425 43.425 0 0 1-8.193 3.506 51.884 51.884 0 0 1-8.968 1.956 70.398 70.398 0 0 1-8.969.591c-3.69 0-7.333-.259-10.924-.775a63.873 63.873 0 0 1-10.629-2.473 43.942 43.942 0 0 0 2.583 9.264c1.181 2.929 2.755 5.487 4.724 7.677 1.968 2.19 4.393 3.925 7.271 5.203 2.879 1.28 6.286 1.92 10.224 1.92 2.607 0 5.093-.394 7.455-1.182a23.802 23.802 0 0 0 6.495-3.321 24.91 24.91 0 0 0 5.204-5.093 26.655 26.655 0 0 0 3.653-6.569l10.777 3.985c-1.624 3.888-3.852 7.247-6.681 10.076-2.83 2.83-6.028 5.166-9.596 7.012s-7.356 3.211-11.367 4.097-7.984 1.328-11.92 1.328c-6.496 0-12.5-1.096-18.011-3.284-5.512-2.189-10.26-5.252-14.246-9.189-3.985-3.937-7.111-8.637-9.374-14.099-2.264-5.462-3.396-11.44-3.396-17.937 0-6.495 1.132-12.475 3.396-17.937 2.263-5.462 5.389-10.16 9.374-14.098 3.986-3.937 8.734-7 14.246-9.19 5.511-2.188 11.515-3.284 18.011-3.284 3.148 0 6.372.222 9.669.664a59.042 59.042 0 0 1 9.596 2.104 46.495 46.495 0 0 1 8.784 3.728c2.755 1.526 5.153 3.408 7.196 5.647 2.041 2.239 3.665 4.834 4.872 7.787 1.206 2.952 1.808 6.323 1.808 10.112zm-61.485 16.829c3.05.689 6.101 1.23 9.152 1.624 3.051.395 6.127.59 9.227.59 3.248 0 6.262-.307 9.042-.922 2.779-.615 5.191-1.648 7.233-3.101 2.042-1.451 3.654-3.383 4.835-5.794 1.182-2.411 1.771-5.413 1.771-9.006 0-2.902-.395-5.56-1.181-7.972-.788-2.41-1.956-4.477-3.506-6.2-1.551-1.722-3.458-3.063-5.721-4.022-2.264-.96-4.897-1.439-7.898-1.439-2.805 0-5.327.517-7.565 1.55a19.662 19.662 0 0 0-5.905 4.171c-1.697 1.747-3.149 3.777-4.354 6.09a44.182 44.182 0 0 0-2.989 7.233 45.666 45.666 0 0 0-1.698 7.603c-.345 2.56-.517 4.971-.517 7.233v1.182c0 .394.024.786.074 1.18zm167.702-2.362c0 6.2-.936 12.008-2.806 17.42-1.87 5.414-4.576 10.125-8.119 14.135-3.543 4.012-7.873 7.173-12.991 9.485s-10.924 3.469-17.419 3.469c-4.972 0-9.535-.972-13.692-2.915-4.159-1.943-7.714-4.933-10.666-8.969v49.528h-24.949V395.882h9.596l11.072 18.527c1.082-3.101 2.57-5.917 4.466-8.451a30.453 30.453 0 0 1 6.569-6.496 29.902 29.902 0 0 1 8.193-4.17c2.977-.984 6.113-1.477 9.411-1.477 6.495 0 12.301 1.157 17.419 3.469 5.118 2.314 9.448 5.476 12.991 9.485 3.543 4.012 6.249 8.723 8.119 14.135 1.87 5.415 2.806 11.221 2.806 17.421zm-25.318 0c0-2.165-.11-4.466-.332-6.901s-.603-4.858-1.144-7.271a38.801 38.801 0 0 0-2.252-6.938c-.959-2.214-2.177-4.17-3.653-5.868-1.477-1.697-3.261-3.051-5.352-4.06-2.092-1.008-4.516-1.513-7.271-1.513-2.854 0-5.327.492-7.418 1.476a16.462 16.462 0 0 0-5.389 4.023c-1.501 1.697-2.73 3.642-3.69 5.831s-1.71 4.491-2.251 6.901a56.402 56.402 0 0 0-1.145 7.308 78.174 78.174 0 0 0-.332 7.012c0 1.969.147 4.146.442 6.532a53.807 53.807 0 0 0 1.403 7.197 44.01 44.01 0 0 0 2.509 7.012c1.034 2.265 2.3 4.281 3.802 6.053a17.693 17.693 0 0 0 5.24 4.244c1.993 1.059 4.269 1.587 6.828 1.587 2.805 0 5.24-.504 7.308-1.513a16.615 16.615 0 0 0 5.314-4.06c1.477-1.698 2.694-3.654 3.653-5.868a38.801 38.801 0 0 0 2.252-6.938c.541-2.41.922-4.847 1.144-7.308.223-2.46.334-4.772.334-6.938zm127.179 42.811h-24.949V470.95c-2.952 4.036-6.508 7.025-10.666 8.969s-8.723 2.915-13.691 2.915c-6.496 0-12.303-1.156-17.42-3.469-5.119-2.313-9.448-5.474-12.991-9.485-3.543-4.01-6.25-8.721-8.119-14.135-1.871-5.412-2.806-11.22-2.806-17.42s.935-12.006 2.806-17.42c1.869-5.412 4.576-10.123 8.119-14.135 3.543-4.01 7.872-7.171 12.991-9.485 5.117-2.312 10.924-3.469 17.42-3.469 3.296 0 6.433.492 9.41 1.477s5.708 2.374 8.193 4.17c2.484 1.797 4.675 3.962 6.569 6.496s3.383 5.351 4.466 8.451l11.072-18.527h9.596v85.253zm-25.096-42.811c0-2.214-.11-4.551-.332-7.012a56.602 56.602 0 0 0-1.145-7.308 37.78 37.78 0 0 0-2.251-6.901c-.959-2.189-2.19-4.134-3.69-5.831-1.502-1.698-3.311-3.038-5.426-4.023-2.116-.983-4.576-1.476-7.381-1.476s-5.24.505-7.308 1.513a16.63 16.63 0 0 0-5.314 4.06c-1.477 1.698-2.694 3.654-3.653 5.868a38.747 38.747 0 0 0-2.252 6.938c-.542 2.412-.922 4.835-1.144 7.271s-.332 4.736-.332 6.901c0 2.166.11 4.479.332 6.938a56.373 56.373 0 0 0 1.144 7.308 38.695 38.695 0 0 0 2.252 6.938c.959 2.214 2.177 4.17 3.653 5.868a16.64 16.64 0 0 0 5.314 4.06c2.067 1.009 4.503 1.513 7.308 1.513 2.559 0 4.835-.528 6.828-1.587a17.734 17.734 0 0 0 5.24-4.244c1.501-1.771 2.768-3.788 3.802-6.053a44.109 44.109 0 0 0 2.509-7.012c.64-2.41 1.107-4.81 1.403-7.197.295-2.386.443-4.564.443-6.532zm70.86 42.811h-24.949V356.615h9.596l15.354 25.908v98.613h-.001z" fill="#414042"/><path fill="#ED1C24" d="M276.646 256.167c44.277 64.957 70.167 141.826-51.822 141.827-96.576.001-174.866-78.516-174.866-175.369s78.29-175.368 174.866-175.368c74.678 0 138.41 46.951 163.478 113.019l49.227-8.079C407.351 63.674 323.49.001 224.752.001 100.625.001 0 100.626 0 224.753s100.625 224.752 224.752 224.752c105.168 0 193.454-72.238 217.973-169.799l-166.079-23.539z"/></svg>