<svg xmlns="http://www.w3.org/2000/svg" width="839.381" height="520.478" viewBox="0 0 839.381 520.478"><path d="M624.03 110.055c32.738 0 63.518 12.75 86.668 35.9 23.15 23.15 35.9 53.93 35.9 86.67s-12.75 63.518-35.9 86.668c-23.15 23.15-53.93 35.9-86.67 35.9s-63.518-12.75-86.668-35.9c-23.15-23.15-35.9-53.93-35.9-86.67s12.75-63.518 35.9-86.668c23.15-23.15 53.93-35.9 86.67-35.9m0-32c-85.367 0-154.57 69.203-154.57 154.57s69.203 154.568 154.57 154.568 154.568-69.203 154.568-154.57-69.203-154.568-154.57-154.568z"/><path d="M569.926 239.33c0 1.703-.247 3.216-.74 4.538-.492 1.323-1.165 2.47-2.016 3.445a11.566 11.566 0 0 1-3.025 2.454 18.437 18.437 0 0 1-3.748 1.597c-1.334.403-2.73.694-4.185.874-1.457.18-2.902.27-4.337.27-1.927 0-3.63-.124-5.11-.37s-2.89-.645-4.234-1.194-2.683-1.26-4.016-2.134-2.818-1.938-4.453-3.193l6.622-5.412a11.771 11.771 0 0 0 2.403 3.11 20.5 20.5 0 0 0 3.11 2.403c1.075.672 2.117 1.188 3.125 1.546 1.01.36 1.826.538 2.454.538.516 0 1.098-.017 1.748-.05.65-.034 1.31-.102 1.983-.203s1.333-.253 1.983-.455a6.308 6.308 0 0 0 1.73-.824c.504-.346.907-.783 1.21-1.31s.454-1.16.454-1.9c0-.76-.196-1.428-.588-2a5.74 5.74 0 0 0-1.53-1.495 9.665 9.665 0 0 0-2.15-1.076c-.808-.292-1.62-.55-2.438-.774s-1.608-.42-2.37-.588-1.423-.33-1.982-.487a224.36 224.36 0 0 0-3.26-.89 45.517 45.517 0 0 1-3.397-1.042c-1.12-.392-2.19-.857-3.21-1.395s-1.916-1.182-2.688-1.933a8.549 8.549 0 0 1-1.85-2.655c-.46-1.02-.69-2.213-.69-3.58 0-2.51.5-4.61 1.497-6.302.996-1.692 2.313-3.047 3.95-4.067s3.495-1.742 5.58-2.168 4.2-.64 6.352-.64c1.478 0 3.035.152 4.672.455a26.88 26.88 0 0 1 4.772 1.345 24.464 24.464 0 0 1 4.337 2.168c1.345.852 2.466 1.827 3.362 2.924l-6.622 5.445c-.493-1.344-1.138-2.5-1.933-3.462-.796-.963-1.66-1.753-2.59-2.37a10.68 10.68 0 0 0-2.855-1.36c-.976-.292-1.878-.438-2.706-.438-.807 0-1.715.034-2.723.1a10.64 10.64 0 0 0-2.84.572c-.887.314-1.637.79-2.253 1.43s-.925 1.518-.925 2.638c0 .807.186 1.496.555 2.067.37.57.857 1.064 1.463 1.48a9.15 9.15 0 0 0 2.067 1.04c.772.28 1.563.527 2.37.74.806.213 1.59.398 2.353.555.76.157 1.445.325 2.05.504 1.03.293 2.123.59 3.277.892 1.154.302 2.29.65 3.412 1.042a27 27 0 0 1 3.243 1.378 11.053 11.053 0 0 1 2.74 1.933 8.909 8.909 0 0 1 1.882 2.672c.473 1.02.71 2.223.71 3.613zm46.857-9.85c0 2.623-.32 5.357-.958 8.203a50.236 50.236 0 0 1-2.673 8.37 46.546 46.546 0 0 1-4.1 7.714c-1.593 2.41-3.34 4.488-5.245 6.235l-4.27-2.32a32.68 32.68 0 0 0 1.715-3.763 49.129 49.129 0 0 0 1.463-4.42 74.488 74.488 0 0 0 1.176-4.825 77.73 77.73 0 0 0 1.413-9.662c.123-1.535.185-2.963.185-4.286 0-.874-.033-1.81-.1-2.807-.068-.998-.208-1.995-.42-2.992s-.5-1.955-.858-2.874c-.358-.918-.835-1.726-1.43-2.42s-1.31-1.254-2.15-1.68c-.84-.426-1.832-.64-2.975-.64-1.12 0-2.117.252-2.99.756s-1.648 1.166-2.32 1.983a12.626 12.626 0 0 0-1.73 2.807 21.12 21.12 0 0 0-1.178 3.244 23.75 23.75 0 0 0-.655 3.277c-.134 1.077-.2 2.04-.2 2.892v19.462h-11.397v-53.11h11.36v20c1.458-2.127 3.245-3.77 5.362-4.923 2.118-1.153 4.465-1.73 7.042-1.73 2.688 0 5.03.437 7.024 1.31 1.994.875 3.652 2.09 4.975 3.648s2.308 3.406 2.957 5.546c.65 2.14.976 4.475.976 7.007zm48.504 2.757c0 2.017-.27 3.91-.807 5.68a19.911 19.911 0 0 1-2.235 4.908c-.953 1.5-2.1 2.852-3.445 4.05s-2.818 2.214-4.42 3.043a23.107 23.107 0 0 1-5.144 1.916 23.543 23.543 0 0 1-5.63.672c-1.928 0-3.8-.224-5.613-.672a23.215 23.215 0 0 1-5.126-1.916 21.373 21.373 0 0 1-4.42-3.042 19.184 19.184 0 0 1-3.446-4.05 19.966 19.966 0 0 1-2.234-4.925c-.537-1.78-.807-3.668-.807-5.663 0-1.994.27-3.882.806-5.664a19.856 19.856 0 0 1 2.235-4.924 19.208 19.208 0 0 1 3.446-4.052 21.465 21.465 0 0 1 4.42-3.042 23.242 23.242 0 0 1 5.127-1.916 23.33 23.33 0 0 1 5.613-.672 23.543 23.543 0 0 1 10.774 2.588 21.465 21.465 0 0 1 4.42 3.042 19.208 19.208 0 0 1 3.445 4.05 19.896 19.896 0 0 1 2.235 4.925c.54 1.78.807 3.67.807 5.664zm-11.563 0a33.53 33.53 0 0 0-.185-3.412c-.124-1.198-.332-2.375-.623-3.53s-.688-2.262-1.193-3.327a10.963 10.963 0 0 0-1.865-2.79 8.52 8.52 0 0 0-2.656-1.916c-1.03-.48-2.23-.723-3.597-.723-1.3 0-2.454.246-3.462.738a8.78 8.78 0 0 0-2.64 1.967c-.75.818-1.378 1.765-1.882 2.84s-.913 2.19-1.227 3.344a23.477 23.477 0 0 0-.673 3.495c-.134 1.176-.2 2.28-.2 3.31s.066 2.136.2 3.312c.135 1.177.358 2.348.673 3.513.313 1.166.723 2.28 1.227 3.345a11.267 11.267 0 0 0 1.883 2.823 8.764 8.764 0 0 0 2.64 1.967c1.007.493 2.16.74 3.46.74 1.346 0 2.533-.242 3.564-.724a8.542 8.542 0 0 0 2.673-1.932 10.761 10.761 0 0 0 1.865-2.79c.493-1.053.89-2.163 1.193-3.328s.517-2.342.64-3.53c.122-1.186.184-2.317.184-3.393zm60 0c0 2.824-.426 5.468-1.277 7.933-.852 2.465-2.084 4.61-3.697 6.437s-3.586 3.266-5.916 4.32c-2.33 1.052-4.975 1.58-7.933 1.58-2.263 0-4.34-.443-6.234-1.33-1.894-.884-3.513-2.245-4.857-4.083v22.555h-11.362v-56.74h4.37l5.042 8.436a14.199 14.199 0 0 1 2.033-3.85 13.837 13.837 0 0 1 2.992-2.957 13.552 13.552 0 0 1 8.016-2.572c2.96 0 5.603.527 7.934 1.58 2.33 1.054 4.303 2.493 5.916 4.32 1.613 1.826 2.846 3.97 3.697 6.436.85 2.466 1.277 5.11 1.277 7.933zm-11.53 0c0-.985-.05-2.033-.15-3.143-.102-1.11-.275-2.213-.522-3.31s-.59-2.152-1.025-3.16-.99-1.9-1.664-2.673a7.53 7.53 0 0 0-2.437-1.848c-.953-.46-2.057-.69-3.312-.69-1.3 0-2.426.225-3.378.673a7.512 7.512 0 0 0-2.454 1.832 10.098 10.098 0 0 0-1.68 2.656c-.438.997-.78 2.045-1.025 3.143-.247 1.1-.42 2.208-.52 3.328s-.152 2.185-.152 3.193c0 .897.067 1.888.202 2.975.134 1.087.347 2.18.64 3.277.29 1.097.67 2.162 1.142 3.192s1.046 1.95 1.73 2.756a8.089 8.089 0 0 0 2.386 1.933c.908.483 1.944.724 3.11.724 1.276 0 2.386-.23 3.327-.69a7.56 7.56 0 0 0 2.42-1.848c.673-.773 1.228-1.664 1.664-2.672s.778-2.062 1.025-3.16c.246-1.098.42-2.207.52-3.328a34.54 34.54 0 0 0 .152-3.16zM487.073 432.272c0 5.758-.7 11.762-2.104 18.01a110.06 110.06 0 0 1-5.87 18.38c-2.51 6.005-5.51 11.65-9.004 16.94-3.495 5.29-7.333 9.854-11.515 13.692l-9.373-5.094c1.328-2.46 2.583-5.216 3.764-8.267a106.05 106.05 0 0 0 3.212-9.706c.96-3.42 1.82-6.95 2.584-10.593.762-3.64 1.402-7.245 1.92-10.813.516-3.566.91-7.035 1.18-10.406.27-3.37.406-6.507.406-9.41 0-1.92-.074-3.975-.222-6.164s-.455-4.38-.923-6.57-1.096-4.292-1.882-6.31c-.788-2.018-1.834-3.79-3.137-5.315a15.188 15.188 0 0 0-4.725-3.69c-1.845-.935-4.022-1.402-6.532-1.402-2.46 0-4.65.554-6.568 1.66-1.92 1.107-3.617 2.56-5.093 4.355-1.478 1.797-2.745 3.85-3.803 6.163-1.06 2.314-1.92 4.69-2.583 7.124s-1.145 4.835-1.44 7.197c-.294 2.362-.442 4.48-.442 6.35v42.736H399.9v-85.254h9.596l11.44 19.855c1.378-3.296 3.1-6.298 5.168-9.005 2.066-2.705 4.403-5.02 7.012-6.938 2.607-1.92 5.5-3.396 8.673-4.43s6.605-1.55 10.296-1.55c5.905 0 11.047.96 15.427 2.88s8.02 4.59 10.925 8.01c2.902 3.42 5.067 7.48 6.495 12.178 1.426 4.7 2.14 9.83 2.14 15.39zm98.467-8.414c0 3.494-.567 6.606-1.698 9.337-1.133 2.73-2.67 5.13-4.613 7.197a27.828 27.828 0 0 1-6.755 5.24 43.425 43.425 0 0 1-8.193 3.506 51.977 51.977 0 0 1-8.968 1.956c-3.076.395-6.065.59-8.97.59-3.69 0-7.332-.258-10.923-.774a63.885 63.885 0 0 1-10.628-2.473 43.942 43.942 0 0 0 2.583 9.264c1.18 2.93 2.755 5.488 4.724 7.678 1.967 2.19 4.392 3.925 7.27 5.203 2.88 1.28 6.286 1.92 10.224 1.92 2.607 0 5.093-.393 7.455-1.18a23.855 23.855 0 0 0 6.494-3.322 24.91 24.91 0 0 0 5.204-5.093 26.611 26.611 0 0 0 3.653-6.57l10.778 3.986c-1.624 3.89-3.852 7.248-6.68 10.077-2.83 2.83-6.03 5.166-9.597 7.012s-7.355 3.21-11.366 4.096-7.984 1.328-11.92 1.328c-6.496 0-12.5-1.096-18.01-3.284-5.513-2.19-10.26-5.252-14.247-9.19-3.985-3.936-7.11-8.636-9.374-14.098-2.264-5.462-3.396-11.44-3.396-17.937 0-6.495 1.132-12.475 3.396-17.937 2.263-5.462 5.39-10.16 9.374-14.098 3.986-3.937 8.734-7 14.246-9.19 5.51-2.188 11.515-3.284 18.01-3.284 3.15 0 6.373.222 9.67.664a59.042 59.042 0 0 1 9.596 2.104c3.1.96 6.026 2.203 8.783 3.728 2.755 1.526 5.153 3.408 7.196 5.647 2.04 2.238 3.664 4.833 4.87 7.786 1.207 2.952 1.81 6.323 1.81 10.112zm-61.486 16.83c3.05.688 6.1 1.23 9.152 1.623 3.05.396 6.127.59 9.227.59 3.248 0 6.262-.306 9.042-.92 2.78-.616 5.19-1.65 7.233-3.102 2.042-1.45 3.654-3.383 4.835-5.794 1.182-2.41 1.77-5.413 1.77-9.006 0-2.902-.394-5.56-1.18-7.972-.788-2.41-1.956-4.477-3.506-6.2-1.55-1.722-3.458-3.063-5.72-4.022-2.265-.96-4.898-1.44-7.9-1.44-2.804 0-5.326.518-7.564 1.55a19.67 19.67 0 0 0-5.905 4.172c-1.697 1.747-3.15 3.777-4.354 6.09a44.274 44.274 0 0 0-2.99 7.233 45.752 45.752 0 0 0-1.697 7.602c-.345 2.56-.517 4.97-.517 7.233v1.182s.024.786.074 1.18zm167.702-2.363c0 6.2-.936 12.008-2.806 17.42-1.87 5.414-4.576 10.125-8.12 14.135-3.542 4.012-7.872 7.173-12.99 9.485s-10.924 3.47-17.42 3.47c-4.97 0-9.534-.973-13.69-2.916-4.16-1.944-7.715-4.934-10.667-8.97v49.528h-24.95V395.882h9.597l11.072 18.527c1.082-3.102 2.57-5.918 4.466-8.452 1.894-2.534 4.084-4.7 6.57-6.496a29.882 29.882 0 0 1 8.192-4.17c2.977-.984 6.113-1.477 9.41-1.477 6.496 0 12.302 1.157 17.42 3.47 5.118 2.313 9.448 5.475 12.99 9.484 3.544 4.01 6.25 8.722 8.12 14.134 1.87 5.415 2.806 11.22 2.806 17.42zm-25.318 0c0-2.165-.11-4.466-.332-6.9s-.603-4.86-1.144-7.272a38.801 38.801 0 0 0-2.252-6.938c-.96-2.214-2.177-4.17-3.653-5.868-1.477-1.697-3.26-3.05-5.352-4.06-2.092-1.008-4.516-1.513-7.27-1.513-2.855 0-5.328.492-7.42 1.476a16.468 16.468 0 0 0-5.388 4.023c-1.5 1.697-2.73 3.642-3.69 5.83s-1.71 4.492-2.25 6.902a56.207 56.207 0 0 0-1.146 7.308c-.22 2.46-.33 4.798-.33 7.012 0 1.97.146 4.146.44 6.532a53.97 53.97 0 0 0 1.404 7.197c.64 2.41 1.476 4.75 2.51 7.012 1.033 2.265 2.3 4.28 3.8 6.053a17.73 17.73 0 0 0 5.24 4.243c1.994 1.06 4.27 1.587 6.83 1.587 2.804 0 5.24-.504 7.307-1.513a16.597 16.597 0 0 0 5.315-4.06c1.477-1.698 2.694-3.654 3.653-5.868a38.822 38.822 0 0 0 2.252-6.94c.54-2.41.922-4.846 1.144-7.307.223-2.46.334-4.772.334-6.938zm127.179 42.811h-24.95V470.95c-2.95 4.036-6.507 7.025-10.665 8.97s-8.723 2.914-13.69 2.914c-6.497 0-12.304-1.156-17.42-3.47-5.12-2.312-9.45-5.473-12.992-9.484-3.543-4.01-6.25-8.72-8.12-14.135-1.87-5.412-2.805-11.22-2.805-17.42s.935-12.006 2.806-17.42c1.87-5.412 4.577-10.123 8.12-14.135 3.543-4.01 7.872-7.17 12.99-9.485 5.118-2.312 10.925-3.47 17.42-3.47 3.297 0 6.434.493 9.41 1.478s5.71 2.374 8.194 4.17c2.484 1.797 4.675 3.962 6.57 6.496s3.382 5.35 4.465 8.45l11.07-18.527h9.597v85.253zm-25.096-42.81c0-2.215-.11-4.552-.33-7.013a56.777 56.777 0 0 0-1.146-7.308 37.743 37.743 0 0 0-2.25-6.9c-.96-2.19-2.19-4.135-3.69-5.832-1.503-1.698-3.312-3.038-5.427-4.023-2.116-.983-4.576-1.476-7.38-1.476s-5.24.505-7.31 1.513a16.65 16.65 0 0 0-5.313 4.06c-1.477 1.698-2.694 3.654-3.653 5.868a38.662 38.662 0 0 0-2.25 6.938c-.543 2.412-.923 4.835-1.145 7.27s-.332 4.737-.332 6.902c0 2.166.11 4.48.332 6.938a56.4 56.4 0 0 0 1.144 7.308 38.63 38.63 0 0 0 2.25 6.94c.96 2.213 2.178 4.17 3.654 5.867a16.64 16.64 0 0 0 5.314 4.06c2.067 1.01 4.503 1.513 7.308 1.513 2.56 0 4.835-.528 6.828-1.587a17.734 17.734 0 0 0 5.24-4.244c1.5-1.772 2.768-3.79 3.802-6.054a44.078 44.078 0 0 0 2.51-7.012c.64-2.41 1.106-4.81 1.402-7.197.295-2.386.443-4.564.443-6.532zm70.859 42.81h-24.948v-124.52h9.596l15.354 25.907v98.613zM276.646 256.167c44.277 64.957 70.167 141.826-51.822 141.827-96.576 0-174.866-78.516-174.866-175.37s78.29-175.367 174.866-175.367c74.678 0 138.41 46.95 163.478 113.02l49.227-8.08C407.35 63.674 323.49 0 224.75 0 100.625 0 0 100.627 0 224.754s100.625 224.752 224.752 224.752c105.168 0 193.454-72.238 217.973-169.8l-166.08-23.538z"/></svg>